<?xml version="1.0" encoding="UTF-8" standalone="no"?>
<svg
   width="281"
   height="301"
   version="1.1"
   id="svg220"
   sodipodi:docname="atom.svg"
   inkscape:version="1.1.1 (3bf5ae0d25, 2021-09-20)"
   xmlns:inkscape="http://www.inkscape.org/namespaces/inkscape"
   xmlns:sodipodi="http://sodipodi.sourceforge.net/DTD/sodipodi-0.dtd"
   xmlns:xlink="http://www.w3.org/1999/xlink"
   xmlns="http://www.w3.org/2000/svg"
   xmlns:svg="http://www.w3.org/2000/svg">
  <sodipodi:namedview
     id="namedview222"
     pagecolor="#ffffff"
     bordercolor="#111111"
     borderopacity="1"
     inkscape:pageshadow="0"
     inkscape:pageopacity="0"
     inkscape:pagecheckerboard="1"
     showgrid="true"
     inkscape:snap-text-baseline="true"
     showguides="true"
     inkscape:guide-bbox="true"
     inkscape:zoom="15.14759"
     inkscape:cx="215.51283"
     inkscape:cy="274.16903"
     inkscape:window-width="1920"
     inkscape:window-height="1007"
     inkscape:window-x="0"
     inkscape:window-y="0"
     inkscape:window-maximized="1"
     inkscape:current-layer="svg220">
    <sodipodi:guide
       position="69.714061,280"
       orientation="0,-1"
       id="guide304" />
    <inkscape:grid
       type="xygrid"
       id="grid306" />
  </sodipodi:namedview>
  <defs
     id="defs150">
    <style
       type="text/css"
       id="style148">
    @namespace &quot;http://www.w3.org/2000/svg&quot;;
    .line                 {fill: none; stroke: #332900; stroke-width: 1;}
    .bold-line            {stroke: #141000; shape-rendering: crispEdges; stroke-width: 2;}
    .thin-line            {stroke: #1F1800; shape-rendering: crispEdges}
    .filled               {fill: #332900; stroke: none;}
    text.terminal         {font-family: Verdana, Sans-serif;
                            font-size: 12px;
                            fill: #141000;
                            font-weight: bold;
                          }
    text.nonterminal      {font-family: Verdana, Sans-serif;
                            font-size: 12px;
                            fill: #1A1400;
                            font-weight: normal;
                          }
    text.regexp           {font-family: Verdana, Sans-serif;
                            font-size: 12px;
                            fill: #1F1800;
                            font-weight: normal;
                          }
    rect, circle, polygon {fill: #332900; stroke: #332900;}
    rect.terminal         {fill: #FFDB4D; stroke: #332900; stroke-width: 1;}
    rect.nonterminal      {fill: #FFEC9E; stroke: #332900; stroke-width: 1;}
    rect.text             {fill: none; stroke: none;}
    polygon.regexp        {fill: #FFF4C7; stroke: #332900; stroke-width: 1;}
  </style>
  </defs>
  <polygon
     points="9 17 1 13 1 21"
     id="polygon152" />
  <polygon
     points="17 17 9 13 9 21"
     id="polygon154" />
  <a
     xlink:href="#list"
     xlink:title="list"
     id="a162">
    <rect
       x="51"
       y="3"
       width="38"
       height="32"
       id="rect156" />
    <rect
       x="49"
       y="1"
       width="38"
       height="32"
       class="nonterminal"
       id="rect158" />
    <text
       class="nonterminal"
       x="59"
       y="21"
       id="text160">list</text>
  </a>
  <rect
     x="51"
     y="47"
     width="58"
     height="32"
     rx="10"
     id="rect164" />
  <rect
     x="49"
     y="45"
     width="58"
     height="32"
     class="terminal"
     rx="10"
     id="rect166" />
  <text
     class="terminal"
     x="59"
     y="65"
     id="text168">NAME</text>
  <rect
     x="51"
     y="91"
     width="78"
     height="32"
     rx="10"
     id="rect170" />
  <rect
     x="49"
     y="89"
     width="78"
     height="32"
     class="terminal"
     rx="10"
     id="rect172" />
  <text
     class="terminal"
     x="59"
     y="109"
     id="text174">NUMBER</text>
  <rect
     x="51"
     y="135"
     width="50"
     height="32"
     rx="10"
     id="rect176" />
  <rect
     x="49"
     y="133"
     width="50"
     height="32"
     class="terminal"
     rx="10"
     id="rect178" />
  <text
     class="terminal"
     x="59"
     y="153"
     id="text180">True</text>
  <rect
     x="51"
     y="179"
     width="54"
     height="32"
     rx="10"
     id="rect182" />
  <rect
     x="49"
     y="177"
     width="54"
     height="32"
     class="terminal"
     rx="10"
     id="rect184" />
  <text
     class="terminal"
     x="59"
     y="197"
     id="text186">False</text>
  <rect
     x="51"
     y="223"
     width="54"
     height="32"
     rx="10"
     id="rect188" />
  <rect
     x="49"
     y="221"
     width="54"
     height="32"
     class="terminal"
     rx="10"
     id="rect190" />
  <text
     class="terminal"
     x="59"
     y="241"
     id="text192">None</text>
  <rect
     x="51"
     y="267"
     width="26"
     height="32"
     rx="10"
     id="rect194" />
  <rect
     x="49"
     y="265"
     width="26"
     height="32"
     class="terminal"
     rx="10"
     id="rect196" />
  <text
     class="terminal"
     x="59"
     y="285"
     id="text198">(</text>
  <a
     xlink:href="#expression"
     xlink:title="expression"
     id="a206">
    <rect
       x="97"
       y="267"
       width="90"
       height="32"
       id="rect200" />
    <rect
       x="95"
       y="265"
       width="90"
       height="32"
       class="nonterminal"
       id="rect202" />
    <text
       class="nonterminal"
       x="105"
       y="285"
       id="text204">expression</text>
  </a>
  <rect
     x="207"
     y="267"
     width="26"
     height="32"
     rx="10"
     id="rect208" />
  <rect
     x="205"
     y="265"
     width="26"
     height="32"
     class="terminal"
     rx="10"
     id="rect210" />
  <text
     class="terminal"
     x="215"
     y="285"
     id="text212">)</text>
  <path
     class="line"
     d="m17 17 h2 m20 0 h10 m38 0 h10 m0 0 h144 m-222 0 h20 m202 0 h20 m-242 0 q10 0 10 10 m222 0 q0 -10 10 -10 m-232 10 v24 m222 0 v-24 m-222 24 q0 10 10 10 m202 0 q10 0 10 -10 m-212 10 h10 m58 0 h10 m0 0 h124 m-212 -10 v20 m222 0 v-20 m-222 20 v24 m222 0 v-24 m-222 24 q0 10 10 10 m202 0 q10 0 10 -10 m-212 10 h10 m78 0 h10 m0 0 h104 m-212 -10 v20 m222 0 v-20 m-222 20 v24 m222 0 v-24 m-222 24 q0 10 10 10 m202 0 q10 0 10 -10 m-212 10 h10 m50 0 h10 m0 0 h132 m-212 -10 v20 m222 0 v-20 m-222 20 v24 m222 0 v-24 m-222 24 q0 10 10 10 m202 0 q10 0 10 -10 m-212 10 h10 m54 0 h10 m0 0 h128 m-212 -10 v20 m222 0 v-20 m-222 20 v24 m222 0 v-24 m-222 24 q0 10 10 10 m202 0 q10 0 10 -10 m-212 10 h10 m54 0 h10 m0 0 h128 m-212 -10 v20 m222 0 v-20 m-222 20 v24 m222 0 v-24 m-222 24 q0 10 10 10 m202 0 q10 0 10 -10 m-212 10 h10 m26 0 h10 m0 0 h10 m90 0 h10 m0 0 h10 m26 0 h10 m23 -264 h-3"
     id="path214" />
  <polygon
     points="271 17 279 13 279 21"
     id="polygon216" />
  <polygon
     points="271 17 263 13 263 21"
     id="polygon218" />
  <text
     xml:space="preserve"
     style="font-size:13.3333px;line-height:1;font-family:sans-serif"
     x="-10"
     y="21"
     id="text2178"><tspan
       sodipodi:role="line"
       id="tspan2176"
       x="-10"
       y="21"
       style="font-style:normal;font-variant:normal;font-weight:normal;font-stretch:normal;font-family:Verdana, Sans-serif;-inkscape-font-specification:'Verdana, Sans-serif';text-align:center;text-anchor:middle">0</tspan><tspan
       sodipodi:role="line"
       x="-10"
       y="34.333298"
       id="tspan2180"
       style="font-style:normal;font-variant:normal;font-weight:normal;font-stretch:normal;font-family:Verdana, Sans-serif;-inkscape-font-specification:'Verdana, Sans-serif';text-align:center;text-anchor:middle" /></text>
  <text
     xml:space="preserve"
     style="font-size:13.3333px;line-height:1;font-family:sans-serif"
     x="300"
     y="21"
     id="text2178-7"><tspan
       sodipodi:role="line"
       x="300"
       y="21"
       id="tspan2180-7"
       style="font-style:normal;font-variant:normal;font-weight:normal;font-stretch:normal;font-family:Verdana, Sans-serif;-inkscape-font-specification:'Verdana, Sans-serif';text-align:center;text-anchor:middle">end</tspan></text>
  <text
     xml:space="preserve"
     style="font-size:13.3333px;line-height:1;font-family:sans-serif"
     x="86"
     y="271"
     id="text2178-4"><tspan
       sodipodi:role="line"
       id="tspan2176-0"
       x="86"
       y="271"
       style="font-style:normal;font-variant:normal;font-weight:normal;font-stretch:normal;font-family:Verdana, Sans-serif;-inkscape-font-specification:'Verdana, Sans-serif';text-align:center;text-anchor:middle">1</tspan><tspan
       sodipodi:role="line"
       x="86"
       y="284.36603"
       style="font-style:normal;font-variant:normal;font-weight:normal;font-stretch:normal;font-family:Verdana, Sans-serif;-inkscape-font-specification:'Verdana, Sans-serif';text-align:center;text-anchor:middle"
       id="tspan306">●</tspan><tspan
       sodipodi:role="line"
       x="86"
       y="297.69934"
       id="tspan2180-9"
       style="font-style:normal;font-variant:normal;font-weight:normal;font-stretch:normal;font-family:Verdana, Sans-serif;-inkscape-font-specification:'Verdana, Sans-serif';text-align:center;text-anchor:middle" /></text>
  <text
     xml:space="preserve"
     style="font-size:13.3333px;line-height:1;font-family:sans-serif"
     x="196"
     y="271"
     id="text2178-4-2"><tspan
       sodipodi:role="line"
       id="tspan2176-0-3"
       x="196"
       y="271"
       style="font-style:normal;font-variant:normal;font-weight:normal;font-stretch:normal;font-family:Verdana, Sans-serif;-inkscape-font-specification:'Verdana, Sans-serif';text-align:center;text-anchor:middle">2</tspan><tspan
       sodipodi:role="line"
       x="196"
       y="284.36603"
       style="font-style:normal;font-variant:normal;font-weight:normal;font-stretch:normal;font-family:Verdana, Sans-serif;-inkscape-font-specification:'Verdana, Sans-serif';text-align:center;text-anchor:middle"
       id="tspan306-0">●</tspan><tspan
       sodipodi:role="line"
       x="196"
       y="297.69934"
       id="tspan2180-9-8"
       style="font-style:normal;font-variant:normal;font-weight:normal;font-stretch:normal;font-family:Verdana, Sans-serif;-inkscape-font-specification:'Verdana, Sans-serif';text-align:center;text-anchor:middle" /></text>
</svg>
