<?xml version="1.0" encoding="UTF-8" standalone="no"?>
<svg
   width="179.48564"
   height="255"
   version="1.1"
   id="svg52"
   sodipodi:docname="relation.svg"
   inkscape:version="1.1.1 (3bf5ae0d25, 2021-09-20)"
   xmlns:inkscape="http://www.inkscape.org/namespaces/inkscape"
   xmlns:sodipodi="http://sodipodi.sourceforge.net/DTD/sodipodi-0.dtd"
   xmlns="http://www.w3.org/2000/svg"
   xmlns:svg="http://www.w3.org/2000/svg">
  <sodipodi:namedview
     id="namedview54"
     pagecolor="#ffffff"
     bordercolor="#666666"
     borderopacity="1.0"
     inkscape:pageshadow="2"
     inkscape:pageopacity="0.0"
     inkscape:pagecheckerboard="0"
     showgrid="true"
     inkscape:snap-text-baseline="true"
     showguides="true"
     inkscape:guide-bbox="true"
     inkscape:zoom="5.4863813"
     inkscape:cx="56.230142"
     inkscape:cy="27.522695"
     inkscape:window-width="1500"
     inkscape:window-height="930"
     inkscape:window-x="-7"
     inkscape:window-y="-7"
     inkscape:window-maximized="1"
     inkscape:current-layer="svg52">
    <sodipodi:guide
       position="82.752596,234.5"
       orientation="0,-1"
       id="guide56" />
    <inkscape:grid
       type="xygrid"
       id="grid58"
       originx="13.346346"
       originy="-0.49999853" />
  </sodipodi:namedview>
  <defs
     id="defs4">
    <style
       type="text/css"
       id="style2">
    @namespace &quot;http://www.w3.org/2000/svg&quot;;
    .line                 {fill: none; stroke: #332900; stroke-width: 1;}
    .bold-line            {stroke: #141000; shape-rendering: crispEdges; stroke-width: 2;}
    .thin-line            {stroke: #1F1800; shape-rendering: crispEdges}
    .filled               {fill: #332900; stroke: none;}
    text.terminal         {font-family: Verdana, Sans-serif;
                            font-size: 12px;
                            fill: #141000;
                            font-weight: bold;
                          }
    text.nonterminal      {font-family: Verdana, Sans-serif;
                            font-size: 12px;
                            fill: #1A1400;
                            font-weight: normal;
                          }
    text.regexp           {font-family: Verdana, Sans-serif;
                            font-size: 12px;
                            fill: #1F1800;
                            font-weight: normal;
                          }
    rect, circle, polygon {fill: #332900; stroke: #332900;}
    rect.terminal         {fill: #FFDB4D; stroke: #332900; stroke-width: 1;}
    rect.nonterminal      {fill: #FFEC9E; stroke: #332900; stroke-width: 1;}
    rect.text             {fill: none; stroke: none;}
    polygon.regexp        {fill: #FFF4C7; stroke: #332900; stroke-width: 1;}
  </style>
  </defs>
  <polygon
     points="1,13 1,21 9,17 "
     id="polygon6"
     transform="translate(13.346346,-0.49999853)" />
  <polygon
     points="9,13 9,21 17,17 "
     id="polygon8"
     transform="translate(13.346346,-0.49999853)" />
  <rect
     x="64.346344"
     y="2.500001"
     width="30"
     height="32"
     rx="10"
     id="rect10" />
  <rect
     x="62.346344"
     y="0.5"
     width="30"
     height="32"
     class="terminal"
     rx="10"
     id="rect12" />
  <text
     class="terminal"
     x="72.346344"
     y="20.5"
     id="text14">&lt;</text>
  <rect
     x="64.346344"
     y="46.5"
     width="30"
     height="32"
     rx="10"
     id="rect16" />
  <rect
     x="62.346344"
     y="44.5"
     width="30"
     height="32"
     class="terminal"
     rx="10"
     id="rect18" />
  <text
     class="terminal"
     x="72.346344"
     y="64.5"
     id="text20">&gt;</text>
  <rect
     x="64.346344"
     y="90.5"
     width="40"
     height="32"
     rx="10"
     id="rect22" />
  <rect
     x="62.346344"
     y="88.5"
     width="40"
     height="32"
     class="terminal"
     rx="10"
     id="rect24" />
  <text
     class="terminal"
     x="72.346344"
     y="108.5"
     id="text26">==</text>
  <rect
     x="64.346344"
     y="134.5"
     width="40"
     height="32"
     rx="10"
     id="rect28" />
  <rect
     x="62.346344"
     y="132.5"
     width="40"
     height="32"
     class="terminal"
     rx="10"
     id="rect30" />
  <text
     class="terminal"
     x="72.346344"
     y="152.5"
     id="text32">&lt;=</text>
  <rect
     x="64.346344"
     y="178.5"
     width="40"
     height="32"
     rx="10"
     id="rect34" />
  <rect
     x="62.346344"
     y="176.5"
     width="40"
     height="32"
     class="terminal"
     rx="10"
     id="rect36" />
  <text
     class="terminal"
     x="72.346344"
     y="196.5"
     id="text38">&gt;=</text>
  <rect
     x="64.346344"
     y="222.5"
     width="34"
     height="32"
     rx="10"
     id="rect40" />
  <rect
     x="62.346344"
     y="220.5"
     width="34"
     height="32"
     class="terminal"
     rx="10"
     id="rect42" />
  <text
     class="terminal"
     x="72.346344"
     y="240.5"
     id="text44">!=</text>
  <path
     class="line"
     d="m 30.346346,16.500001 h 2 m 20,0 h 10 m 30,0 h 10.000004 m 0,0 h 10 m -80.000004,0 h 20 m 60.000004,0 h 20 m -100.000004,0 q 10,0 10,10 m 80.000004,0 q 0,-10 10,-10 m -90.000004,10 v 24 m 80.000004,0 v -24 m -80.000004,24 q 0,10 10,10 m 60.000004,0 q 10,0 10,-10 m -70.000004,10 h 10 m 30,0 h 10.000004 m 0,0 h 10 m -70.000004,-10 v 20 m 80.000004,0 v -20 m -80.000004,20 v 24 m 80.000004,0 v -24 m -80.000004,24 q 0,9.999999 10,9.999999 m 60.000004,0 q 10,0 10,-9.999999 M 52.346346,104.5 h 10 m 40.000004,0 h 10 M 42.346346,94.500001 V 114.5 m 80.000004,0 V 94.500001 M 42.346346,114.5 v 24 m 80.000004,0 v -24 m -80.000004,24 q 0,10 10,10 m 60.000004,0 q 10,0 10,-10 m -70.000004,10 h 10 m 40.000004,0 h 10 m -70.000004,-10 v 20 m 80.000004,0 v -20 m -80.000004,20 v 24 m 80.000004,0 v -24 m -80.000004,24 q 0,10 10,10 m 60.000004,0 q 10,0 10,-10 m -70.000004,10 h 10 m 40.000004,0 h 10 m -70.000004,-10 v 20 m 80.000004,0 v -20 m -80.000004,20 v 24 m 80.000004,0 v -24 m -80.000004,24 q 0,10 10,10 m 60.000004,0 q 10,0 10,-10 m -70.000004,10 h 10 m 34,0 h 10.000004 m 0,0 h 6 m 23,-219.999999 h -3"
     id="path46" />
  <polygon
     points="137,13 137,21 129,17 "
     id="polygon48"
     transform="translate(13.346346,-0.49999853)" />
  <polygon
     points="121,13 121,21 129,17 "
     id="polygon50"
     transform="translate(13.346346,-0.49999853)" />
  <text
     xml:space="preserve"
     style="font-size:13.3333px;line-height:1;font-family:sans-serif"
     x="3.3463457"
     y="20.5"
     id="text2178"><tspan
       sodipodi:role="line"
       id="tspan2176"
       x="3.3463459"
       y="20.5"
       style="font-style:normal;font-variant:normal;font-weight:normal;font-stretch:normal;font-family:Verdana, Sans-serif;-inkscape-font-specification:'Verdana, Sans-serif';text-align:center;text-anchor:middle">0</tspan><tspan
       sodipodi:role="line"
       x="3.3463457"
       y="33.833302"
       id="tspan2180"
       style="font-style:normal;font-variant:normal;font-weight:normal;font-stretch:normal;font-family:Verdana, Sans-serif;-inkscape-font-specification:'Verdana, Sans-serif';text-align:center;text-anchor:middle" /></text>
  <text
     xml:space="preserve"
     style="font-size:13.3333px;line-height:1;font-family:sans-serif"
     x="168.34634"
     y="20.5"
     id="text2178-7"><tspan
       sodipodi:role="line"
       x="168.34634"
       y="20.5"
       id="tspan2180-7"
       style="font-style:normal;font-variant:normal;font-weight:normal;font-stretch:normal;font-family:Verdana, Sans-serif;-inkscape-font-specification:'Verdana, Sans-serif';text-align:center;text-anchor:middle">end</tspan></text>
</svg>
