<?xml version="1.0" encoding="UTF-8" standalone="no"?>
<svg
   width="229.48564"
   height="167"
   version="1.1"
   id="svg44"
   sodipodi:docname="small.svg"
   inkscape:version="1.1.1 (3bf5ae0d25, 2021-09-20)"
   xmlns:inkscape="http://www.inkscape.org/namespaces/inkscape"
   xmlns:sodipodi="http://sodipodi.sourceforge.net/DTD/sodipodi-0.dtd"
   xmlns:xlink="http://www.w3.org/1999/xlink"
   xmlns="http://www.w3.org/2000/svg"
   xmlns:svg="http://www.w3.org/2000/svg">
  <sodipodi:namedview
     id="namedview46"
     pagecolor="#ffffff"
     bordercolor="#666666"
     borderopacity="1.0"
     inkscape:pageshadow="2"
     inkscape:pageopacity="0.0"
     inkscape:pagecheckerboard="0"
     showgrid="true"
     inkscape:snap-text-baseline="true"
     showguides="true"
     inkscape:guide-bbox="true"
     inkscape:zoom="4.1715976"
     inkscape:cx="108.95106"
     inkscape:cy="7.4312057"
     inkscape:window-width="1500"
     inkscape:window-height="930"
     inkscape:window-x="-7"
     inkscape:window-y="-7"
     inkscape:window-maximized="1"
     inkscape:current-layer="svg44">
    <sodipodi:guide
       position="104.19883,146.5"
       orientation="0,-1"
       id="guide48" />
    <inkscape:grid
       type="xygrid"
       id="grid50"
       originx="13.346346"
       originy="-0.5" />
  </sodipodi:namedview>
  <defs
     id="defs4">
    <style
       type="text/css"
       id="style2">
    @namespace &quot;http://www.w3.org/2000/svg&quot;;
    .line                 {fill: none; stroke: #332900; stroke-width: 1;}
    .bold-line            {stroke: #141000; shape-rendering: crispEdges; stroke-width: 2;}
    .thin-line            {stroke: #1F1800; shape-rendering: crispEdges}
    .filled               {fill: #332900; stroke: none;}
    text.terminal         {font-family: Verdana, Sans-serif;
                            font-size: 12px;
                            fill: #141000;
                            font-weight: bold;
                          }
    text.nonterminal      {font-family: Verdana, Sans-serif;
                            font-size: 12px;
                            fill: #1A1400;
                            font-weight: normal;
                          }
    text.regexp           {font-family: Verdana, Sans-serif;
                            font-size: 12px;
                            fill: #1F1800;
                            font-weight: normal;
                          }
    rect, circle, polygon {fill: #332900; stroke: #332900;}
    rect.terminal         {fill: #FFDB4D; stroke: #332900; stroke-width: 1;}
    rect.nonterminal      {fill: #FFEC9E; stroke: #332900; stroke-width: 1;}
    rect.text             {fill: none; stroke: none;}
    polygon.regexp        {fill: #FFF4C7; stroke: #332900; stroke-width: 1;}
  </style>
  </defs>
  <polygon
     points="1,21 9,17 1,13 "
     id="polygon6"
     transform="translate(13.346346,-0.5)" />
  <polygon
     points="9,21 17,17 9,13 "
     id="polygon8"
     transform="translate(13.346346,-0.5)" />
  <a
     xlink:href="#call_or_asg"
     xlink:title="call_or_asg"
     id="a16"
     transform="translate(13.346346,-0.5)">
    <rect
       x="51"
       y="3"
       width="92"
       height="32"
       id="rect10" />
    <rect
       x="49"
       y="1"
       width="92"
       height="32"
       class="nonterminal"
       id="rect12" />
    <text
       class="nonterminal"
       x="59"
       y="21"
       id="text14">call_or_asg</text>
  </a>
  <a
     xlink:href="#return"
     xlink:title="return"
     id="a24"
     transform="translate(13.346346,-0.5)">
    <rect
       x="51"
       y="47"
       width="58"
       height="32"
       id="rect18" />
    <rect
       x="49"
       y="45"
       width="58"
       height="32"
       class="nonterminal"
       id="rect20" />
    <text
       class="nonterminal"
       x="59"
       y="65"
       id="text22">return</text>
  </a>
  <rect
     x="64.346344"
     y="90.5"
     width="58"
     height="32"
     rx="10"
     id="rect26" />
  <rect
     x="62.346344"
     y="88.5"
     width="58"
     height="32"
     class="terminal"
     rx="10"
     id="rect28" />
  <text
     class="terminal"
     x="72.346344"
     y="108.5"
     id="text30">break</text>
  <rect
     x="64.346344"
     y="134.5"
     width="78"
     height="32"
     rx="10"
     id="rect32" />
  <rect
     x="62.346344"
     y="132.5"
     width="78"
     height="32"
     class="terminal"
     rx="10"
     id="rect34" />
  <text
     class="terminal"
     x="72.346344"
     y="152.5"
     id="text36">continue</text>
  <path
     class="line"
     d="m 30.346346,16.5 h 2 m 20,0 h 10 m 92.000004,0 h 10 m -132.000004,0 h 20 m 112.000004,0 h 20 m -152.000004,0 q 10,0 10,10 m 132.000004,0 q 0,-10 10,-10 m -142.000004,10 v 24 m 132.000004,0 v -24 m -132.000004,24 q 0,10 10,10 m 112.000004,0 q 10,0 10,-10 m -122.000004,10 h 10 m 58.000004,0 h 10 m 0,0 h 34 M 42.346346,50.5 v 20 m 132.000004,0 v -20 m -132.000004,20 v 24 m 132.000004,0 v -24 m -132.000004,24 q 0,10 10,10 m 112.000004,0 q 10,0 10,-10 m -122.000004,10 h 10 m 58.000004,0 h 10 m 0,0 h 34 M 42.346346,94.5 v 20 m 132.000004,0 v -20 m -132.000004,20 v 24 m 132.000004,0 v -24 m -132.000004,24 q 0,10 10,10 m 112.000004,0 q 10,0 10,-10 m -122.000004,10 h 10 m 78.000004,0 h 10 m 0,0 h 14 m 23,-132 h -3"
     id="path38" />
  <polygon
     points="189,21 181,17 189,13 "
     id="polygon40"
     transform="translate(13.346346,-0.5)" />
  <polygon
     points="173,21 181,17 173,13 "
     id="polygon42"
     transform="translate(13.346346,-0.5)" />
  <text
     xml:space="preserve"
     style="font-size:13.3333px;line-height:1;font-family:sans-serif"
     x="3.3463457"
     y="20.5"
     id="text2178"><tspan
       sodipodi:role="line"
       id="tspan2176"
       x="3.3463457"
       y="20.5"
       style="font-style:normal;font-variant:normal;font-weight:normal;font-stretch:normal;font-family:Verdana, Sans-serif;-inkscape-font-specification:'Verdana, Sans-serif';text-align:center;text-anchor:middle">0</tspan><tspan
       sodipodi:role="line"
       x="3.3463457"
       y="33.833298"
       id="tspan2180"
       style="font-style:normal;font-variant:normal;font-weight:normal;font-stretch:normal;font-family:Verdana, Sans-serif;-inkscape-font-specification:'Verdana, Sans-serif';text-align:center;text-anchor:middle" /></text>
  <text
     xml:space="preserve"
     style="font-size:13.3333px;line-height:1;font-family:sans-serif"
     x="218.34634"
     y="20.5"
     id="text2178-7"><tspan
       sodipodi:role="line"
       x="218.34634"
       y="20.5"
       id="tspan2180-7"
       style="font-style:normal;font-variant:normal;font-weight:normal;font-stretch:normal;font-family:Verdana, Sans-serif;-inkscape-font-specification:'Verdana, Sans-serif';text-align:center;text-anchor:middle">end</tspan></text>
</svg>
