<?xml version="1.0" encoding="UTF-8" standalone="no"?>
<svg
   width="194.48564"
   height="211"
   version="1.1"
   id="svg48"
   sodipodi:docname="term.svg"
   inkscape:version="1.1.1 (3bf5ae0d25, 2021-09-20)"
   xmlns:inkscape="http://www.inkscape.org/namespaces/inkscape"
   xmlns:sodipodi="http://sodipodi.sourceforge.net/DTD/sodipodi-0.dtd"
   xmlns:xlink="http://www.w3.org/1999/xlink"
   xmlns="http://www.w3.org/2000/svg"
   xmlns:svg="http://www.w3.org/2000/svg">
  <sodipodi:namedview
     id="namedview50"
     pagecolor="#ffffff"
     bordercolor="#666666"
     borderopacity="1.0"
     inkscape:pageshadow="2"
     inkscape:pageopacity="0.0"
     inkscape:pagecheckerboard="0"
     showgrid="true"
     inkscape:snap-text-baseline="true"
     showguides="true"
     inkscape:guide-bbox="true"
     inkscape:zoom="6.6197184"
     inkscape:cx="100.38191"
     inkscape:cy="205.22021"
     inkscape:window-width="1920"
     inkscape:window-height="1007"
     inkscape:window-x="0"
     inkscape:window-y="0"
     inkscape:window-maximized="1"
     inkscape:current-layer="svg48">
    <sodipodi:guide
       position="99.150601,14.5"
       orientation="0,-1"
       id="guide52" />
    <inkscape:grid
       type="xygrid"
       id="grid54"
       originx="13.346346"
       originy="-0.5" />
  </sodipodi:namedview>
  <defs
     id="defs4">
    <style
       type="text/css"
       id="style2">
    @namespace &quot;http://www.w3.org/2000/svg&quot;;
    .line                 {fill: none; stroke: #332900; stroke-width: 1;}
    .bold-line            {stroke: #141000; shape-rendering: crispEdges; stroke-width: 2;}
    .thin-line            {stroke: #1F1800; shape-rendering: crispEdges}
    .filled               {fill: #332900; stroke: none;}
    text.terminal         {font-family: Verdana, Sans-serif;
                            font-size: 12px;
                            fill: #141000;
                            font-weight: bold;
                          }
    text.nonterminal      {font-family: Verdana, Sans-serif;
                            font-size: 12px;
                            fill: #1A1400;
                            font-weight: normal;
                          }
    text.regexp           {font-family: Verdana, Sans-serif;
                            font-size: 12px;
                            fill: #1F1800;
                            font-weight: normal;
                          }
    rect, circle, polygon {fill: #332900; stroke: #332900;}
    rect.terminal         {fill: #FFDB4D; stroke: #332900; stroke-width: 1;}
    rect.nonterminal      {fill: #FFEC9E; stroke: #332900; stroke-width: 1;}
    rect.text             {fill: none; stroke: none;}
    polygon.regexp        {fill: #FFF4C7; stroke: #332900; stroke-width: 1;}
  </style>
  </defs>
  <polygon
     points="1,197 9,193 1,189 "
     id="polygon6"
     transform="translate(13.346346,-0.5)" />
  <polygon
     points="9,197 17,193 9,189 "
     id="polygon8"
     transform="translate(13.346346,-0.5)" />
  <a
     xlink:href="#factor"
     xlink:title="factor"
     id="a16"
     transform="translate(13.346346,-0.5)">
    <rect
       x="51"
       y="179"
       width="56"
       height="32"
       id="rect10" />
    <rect
       x="49"
       y="177"
       width="56"
       height="32"
       class="nonterminal"
       id="rect12" />
    <text
       class="nonterminal"
       x="59"
       y="197"
       id="text14">factor</text>
  </a>
  <rect
     x="64.346344"
     y="134.5"
     width="28"
     height="32"
     rx="10"
     id="rect18" />
  <rect
     x="62.346344"
     y="132.5"
     width="28"
     height="32"
     class="terminal"
     rx="10"
     id="rect20" />
  <text
     class="terminal"
     x="72.346344"
     y="152.5"
     id="text22">*</text>
  <rect
     x="64.346344"
     y="90.5"
     width="28"
     height="32"
     rx="10"
     id="rect24" />
  <rect
     x="62.346344"
     y="88.5"
     width="28"
     height="32"
     class="terminal"
     rx="10"
     id="rect26" />
  <text
     class="terminal"
     x="72.346344"
     y="108.5"
     id="text28">/</text>
  <rect
     x="64.346344"
     y="46.5"
     width="34"
     height="32"
     rx="10"
     id="rect30" />
  <rect
     x="62.346344"
     y="44.5"
     width="34"
     height="32"
     class="terminal"
     rx="10"
     id="rect32" />
  <text
     class="terminal"
     x="72.346344"
     y="64.5"
     id="text34">%</text>
  <rect
     x="64.346344"
     y="2.5"
     width="36"
     height="32"
     rx="10"
     id="rect36" />
  <rect
     x="62.346344"
     y="0.5"
     width="36"
     height="32"
     class="terminal"
     rx="10"
     id="rect38" />
  <text
     class="terminal"
     x="72.346344"
     y="20.5"
     id="text40">//</text>
  <path
     class="line"
     d="m 30.346346,192.5 h 2 m 20,0 h 10 m 56.000004,0 h 10 m -96.000004,0 h 20 m -1,0 q -9,0 -9,-10 v -24 q 0,-10 10,-10 m 76.000004,44 h 20 m -20,0 q 10,0 10,-10 v -24 q 0,-10 -10,-10 m -76.000004,0 h 10 m 28,0 h 10.000004 m 0,0 h 28 m -86.000004,10 v -44 q 0,-10 10,-10 m 86.000004,54 v -44 q 0,-10 -10,-10 m -76.000004,0 h 10 m 28,0 h 10.000004 m 0,0 h 28 m -86.000004,10 v -44 q 0,-10 10,-10 m 86.000004,54 v -44 q 0,-10 -10,-10 m -76.000004,0 h 10 m 34,0 h 10.000004 m 0,0 h 22 m -86.000004,10 v -44 q 0,-10 10,-10 m 86.000004,54 v -44 q 0,-10 -10,-10 m -76.000004,0 h 10 m 36,0 h 10.000004 m 0,0 h 20 m 23,176 h -3"
     id="path42" />
  <polygon
     points="153,197 145,193 153,189 "
     id="polygon44"
     transform="translate(13.346346,-0.5)" />
  <polygon
     points="137,197 145,193 137,189 "
     id="polygon46"
     transform="translate(13.346346,-0.5)" />
  <text
     xml:space="preserve"
     style="font-size:13.3333px;line-height:1;font-family:sans-serif"
     x="3.3463457"
     y="196.5"
     id="text2178"><tspan
       sodipodi:role="line"
       id="tspan2176"
       x="3.3463457"
       y="196.5"
       style="font-style:normal;font-variant:normal;font-weight:normal;font-stretch:normal;font-family:Verdana, Sans-serif;-inkscape-font-specification:'Verdana, Sans-serif';text-align:center;text-anchor:middle">0</tspan><tspan
       sodipodi:role="line"
       x="3.3463457"
       y="209.8333"
       id="tspan2180"
       style="font-style:normal;font-variant:normal;font-weight:normal;font-stretch:normal;font-family:Verdana, Sans-serif;-inkscape-font-specification:'Verdana, Sans-serif';text-align:center;text-anchor:middle" /></text>
  <text
     xml:space="preserve"
     style="font-size:13.3333px;line-height:1;font-family:sans-serif"
     x="183.34634"
     y="196.5"
     id="text2178-7"><tspan
       sodipodi:role="line"
       x="183.34634"
       y="196.5"
       id="tspan2180-7"
       style="font-style:normal;font-variant:normal;font-weight:normal;font-stretch:normal;font-family:Verdana, Sans-serif;-inkscape-font-specification:'Verdana, Sans-serif';text-align:center;text-anchor:middle">end</tspan></text>
  <text
     xml:space="preserve"
     style="font-size:13.3333px;line-height:1;font-family:sans-serif"
     x="53.346344"
     y="182.5"
     id="text2178-4"><tspan
       sodipodi:role="line"
       id="tspan2176-0"
       x="53.346344"
       y="182.5"
       style="font-style:normal;font-variant:normal;font-weight:normal;font-stretch:normal;font-family:Verdana, Sans-serif;-inkscape-font-specification:'Verdana, Sans-serif';text-align:center;text-anchor:middle">1</tspan><tspan
       sodipodi:role="line"
       x="53.346344"
       y="195.86603"
       style="font-style:normal;font-variant:normal;font-weight:normal;font-stretch:normal;font-family:Verdana, Sans-serif;-inkscape-font-specification:'Verdana, Sans-serif';text-align:center;text-anchor:middle"
       id="tspan306">●</tspan><tspan
       sodipodi:role="line"
       x="53.346344"
       y="209.19934"
       id="tspan2180-9"
       style="font-style:normal;font-variant:normal;font-weight:normal;font-stretch:normal;font-family:Verdana, Sans-serif;-inkscape-font-specification:'Verdana, Sans-serif';text-align:center;text-anchor:middle" /></text>
  <text
     xml:space="preserve"
     style="font-size:13.3333px;line-height:1;font-family:sans-serif"
     x="128.34634"
     y="182.5"
     id="text2178-4-2"><tspan
       sodipodi:role="line"
       id="tspan2176-0-3"
       x="128.34634"
       y="182.5"
       style="font-style:normal;font-variant:normal;font-weight:normal;font-stretch:normal;font-family:Verdana, Sans-serif;-inkscape-font-specification:'Verdana, Sans-serif';text-align:center;text-anchor:middle">2</tspan><tspan
       sodipodi:role="line"
       x="128.34634"
       y="195.86603"
       style="font-style:normal;font-variant:normal;font-weight:normal;font-stretch:normal;font-family:Verdana, Sans-serif;-inkscape-font-specification:'Verdana, Sans-serif';text-align:center;text-anchor:middle"
       id="tspan306-0">●</tspan><tspan
       sodipodi:role="line"
       x="128.34634"
       y="209.19934"
       id="tspan2180-9-8"
       style="font-style:normal;font-variant:normal;font-weight:normal;font-stretch:normal;font-family:Verdana, Sans-serif;-inkscape-font-specification:'Verdana, Sans-serif';text-align:center;text-anchor:middle" /></text>
</svg>
